# xmcd
#
# Track frame offsets:
#	150
#	10803
#	24527
#	42903
#	56676
#	69083
#	80264
#	93618
#	112133
#	126531
#	142837
#	156573
#
# Disc length: 2265 seconds
#
# Revision: 1
# Processed by: cddbd v1.5.2PL0 Copyright (c) Steve Scherf et al.
# Submitted via: audiograbber 1.83.01
#
DISCID=a108d70c
DTITLE=Don Williams - The Best Of Don Williams
DYEAR=2013
DGENRE=Country
TTITLE0=(Turn Out The Lights And) Love Me Tonight
TTITLE1=Say It Again
TTITLE2=I Believe In You
TTITLE3=I'm Just A Country Boy
TTITLE4=Some Broken Hearts Never Mend
TTITLE5=It Must Be Love 
TTITLE6=Love Me Over Again
TTITLE7=Lord, I Hope This Day Is Good
TTITLE8=If Hollywood Don't Need You
TTITLE9=Love Is On A Roll
TTITLE10=Stay Young
TTITLE11=I Wouldn't Want To Live If You Didn't Love Me
EXTD=
EXTT0=
EXTT1=
EXTT2=
EXTT3=
EXTT4=
EXTT5=
EXTT6=
EXTT7=
EXTT8=
EXTT9=
EXTT10=
EXTT11=
PLAYORDER=
